<svg xmlns="http://www.w3.org/2000/svg" width="182.004" height="31.085" viewBox="0 0 182.004 31.085">
    <defs>
        <clipPath id="prefix__clip-path">
            <path id="prefix__path33672" d="M5131.946-1741.756h182v-31.085h-182z" class="prefix__cls-1" transform="translate(-5131.946 1772.842)"/>
        </clipPath>
        <style>
            .prefix__cls-1{fill:#4b4b4b}
        </style>
    </defs>
    <g id="prefix__layer1" transform="translate(-286.243 -315.13)">
        <g id="prefix__g33668" transform="translate(286.243 315.13)">
            <g id="prefix__g33674" transform="translate(.002 -.002)">
                <path id="prefix__path33676" d="M-20.262-44.272a6.278 6.278 0 0 1-6.173-6.4 6.3 6.3 0 0 1 6.173-6.374 6.064 6.064 0 0 1 5.5 2.986 1.176 1.176 0 0 1 .155.539v5.655a1.167 1.167 0 0 1-.113.426 6.308 6.308 0 0 1-5.543 3.165m11.2 4.87v-22.442h-5.546v1.884a8.687 8.687 0 0 0-6.261-2.331c-6.352 0-11.176 5.162-11.176 11.624 0 6.489 4.824 11.718 11.176 11.718a8.717 8.717 0 0 0 6.261-2.38v1.93zm24.082 0v-12.139A10.584 10.584 0 0 0 4.45-62.294a10.571 10.571 0 0 0-10.571 10.75V-39.4h5.542v-12.144A4.951 4.951 0 0 1 4.45-56.73a4.963 4.963 0 0 1 5.028 5.186V-39.4zm14.1-4.87a6.278 6.278 0 0 1-6.173-6.4 6.3 6.3 0 0 1 6.173-6.374 6.333 6.333 0 0 1 5.5 2.986 1.176 1.176 0 0 1 .155.539v5.68a1.094 1.094 0 0 1-.11.4 6.316 6.316 0 0 1-5.546 3.165m11.2 4.87v-29.17h-5.547v8.617a8.725 8.725 0 0 0-6.261-2.4c-6.352 0-11.176 5.232-11.176 11.694 0 6.489 4.824 11.718 11.176 11.718a8.712 8.712 0 0 0 6.261-2.38v1.93zm8.483 0v-11.98c0-3.546 1.863-5.43 5.409-5.43v-5.476c-7.137 0-10.951 3.792-10.951 10.906V-39.4zm17.527-5.131a6.116 6.116 0 0 1-6.1-6.13 6.108 6.108 0 0 1 6.1-6.1 6.1 6.1 0 0 1 6.13 6.1 6.11 6.11 0 0 1-6.13 6.13m0 5.588a11.714 11.714 0 0 0 11.74-11.718 11.652 11.652 0 0 0-11.74-11.624A11.648 11.648 0 0 0 54.613-50.67a11.711 11.711 0 0 0 11.715 11.718m17.036-24.6a3.23 3.23 0 0 0 3.211-3.232 3.214 3.214 0 0 0-3.211-3.232 3.214 3.214 0 0 0-3.208 3.232 3.229 3.229 0 0 0 3.208 3.232m2.761 1.7h-5.546V-39.4h5.546zm14.3 17.574a6.278 6.278 0 0 1-6.173-6.4 6.3 6.3 0 0 1 6.173-6.374 6.327 6.327 0 0 1 5.5 2.986 1.14 1.14 0 0 1 .158.539v5.7a.932.932 0 0 1-.113.38 6.308 6.308 0 0 1-5.543 3.165m11.2 4.87v-29.167h-5.543v8.617a8.687 8.687 0 0 0-6.261-2.331c-6.352 0-11.18 5.162-11.18 11.624 0 6.489 4.827 11.74 11.18 11.74a8.731 8.731 0 0 0 6.261-2.4v1.93z" class="prefix__cls-1" transform="translate(32.044 70.016)"/>
            </g>
            <g id="prefix__g33678" transform="translate(148.159 2.084)">
                <path id="prefix__path33680" d="M-42.535-49.062l9.113-22.469H-38l-7.454 19.483h1.554l-7.472-19.458h-4.715l9.113 22.444zm-14.655.268l.021-3.993h-.493c-3.254 0-5.546-1.954-5.546-5.253v-9.76h5.859v-3.7h-5.859v-6.09h-4.06v19.55c0 5.813 3.771 9.247 9.606 9.247z" class="prefix__cls-1" transform="translate(67.268 77.59)"/>
            </g>
        </g>
    </g>
</svg>
