<svg xmlns="http://www.w3.org/2000/svg" width="51.663" height="58.017" viewBox="0 0 51.663 58.017">
    <path id="prefix__logo" d="M48.988 24.376L8.023.725a5.3 5.3 0 0 0-5.349 0l-.04.025-.071.044A5.291 5.291 0 0 0 0 5.357v47.3a5.294 5.294 0 0 0 2.674 4.632 5.3 5.3 0 0 0 5.349 0L48.988 33.64a5.349 5.349 0 0 0 0-9.264zM3.442 53.062a2.046 2.046 0 0 1-.04-.4V5.357a1.981 1.981 0 0 1 .112-.669l23.153 24.15zM8.408 4.876L34.948 20.2l-5.925 6.18zm-.735 48.689L29.023 31.3l6.136 6.4zm39.614-22.871l-9.094 5.25-6.813-7.107 6.6-6.887 9.3 5.372a1.946 1.946 0 0 1 0 3.371zm0 0" transform="translate(.001)" style="fill:#4b4b4b"/>
</svg>
