<svg xmlns="http://www.w3.org/2000/svg" width="64.454" height="48.818" viewBox="0 0 64.454 48.818">
    <defs>
        <style>
            .prefix__cls-1{fill:#4b4b4b}
        </style>
    </defs>
    <g id="prefix__youtube_3_" data-name="youtube (3)" transform="translate(.001)">
        <path id="prefix__Path_618" d="M209.056 114.639l-14.239-7.791a2.615 2.615 0 0 0-3.871 2.294v15.449a2.611 2.611 0 0 0 3.854 2.3l14.24-7.657a2.615 2.615 0 0 0 .016-4.6zm-14.333 8.009V111.1l10.642 5.823zm0 0" class="prefix__cls-1" data-name="Path 618" transform="translate(-166.909 -93.114)"/>
        <path id="prefix__Path_619" d="M63.979 11.522v-.03c-.055-.519-.6-5.133-2.841-7.48a10.488 10.488 0 0 0-6.95-3.257l-.32-.038-.113-.012C45.235.085 32.366 0 32.237 0h-.023c-.129 0-13 .085-21.595.7l-.114.012c-.091.012-.192.024-.3.036A10.224 10.224 0 0 0 3.3 4.111C1.162 6.433.544 10.949.481 11.456l-.007.066C.454 11.738 0 16.877 0 22.036v4.823c0 5.159.455 10.3.474 10.515v.032c.055.51.6 5.04 2.83 7.388a10.7 10.7 0 0 0 7.179 3.211c.262.03.488.056.642.083l.149.021c4.92.468 20.345.7 21 .708h.039c.129 0 13-.085 21.518-.7l.113-.012c.108-.014.229-.027.361-.041a9.988 9.988 0 0 0 6.847-3.275c2.137-2.322 2.755-6.838 2.818-7.345l.007-.066c.019-.216.475-5.355.475-10.514v-4.828c0-5.159-.455-10.3-.475-10.514zm-3.3 15.337c0 4.775-.417 9.693-.456 10.145-.16 1.244-.812 4.1-1.853 5.232a6.212 6.212 0 0 1-4.461 2.064c-.146.015-.28.03-.4.045-8.242.6-20.624.687-21.195.691-.64-.009-15.839-.242-20.609-.685-.244-.04-.508-.07-.787-.1a7.063 7.063 0 0 1-4.83-2.018l-.037-.033c-1.023-1.066-1.656-3.737-1.816-5.18-.03-.341-.458-5.317-.458-10.159v-4.825c0-4.77.416-9.682.456-10.143.191-1.465.855-4.149 1.853-5.234a6.517 6.517 0 0 1 4.552-2.154l.308-.037c8.362-.6 20.833-.688 21.281-.691s12.915.092 21.2.691l.332.039a6.763 6.763 0 0 1 4.626 2.1l.015.016c1.023 1.066 1.656 3.784 1.816 5.256.029.322.458 5.309.458 10.161zm0 0" class="prefix__cls-1" data-name="Path 619"/>
    </g>
</svg>
